<svg width="103" height="27" viewBox="0 0 103 27" fill="none" xmlns="http://www.w3.org/2000/svg">
<path d="M13.289 26.396C10.937 26.396 8.82498 25.964 6.95298 25.1C5.10498 24.212 3.64098 22.904 2.56098 21.176C1.50498 19.424 0.976984 17.276 0.976984 14.732C0.976984 12.692 1.28898 10.796 1.91298 9.044C2.53698 7.292 3.44898 5.756 4.64898 4.436C5.87298 3.116 7.37298 2.084 9.14899 1.34C10.949 0.595999 13.013 0.223999 15.341 0.223999C17.069 0.223999 18.701 0.487999 20.237 1.016C21.773 1.52 22.985 2.18 23.873 2.996L21.389 8.18C19.445 6.716 17.381 5.984 15.197 5.984C13.589 5.984 12.245 6.368 11.165 7.136C10.109 7.88 9.30498 8.9 8.75298 10.196C8.22498 11.468 7.96098 12.896 7.96098 14.48C7.96098 16.592 8.45298 18.152 9.43698 19.16C10.421 20.144 11.969 20.636 14.081 20.636C15.017 20.636 15.989 20.48 16.997 20.168C18.005 19.856 19.061 19.34 20.165 18.62L21.821 23.84C21.149 24.368 20.333 24.824 19.373 25.208C18.413 25.592 17.405 25.88 16.349 26.072C15.293 26.288 14.273 26.396 13.289 26.396ZM20.842 26L36.754 0.619998H42.01L49.822 26H43.486L42.154 20.852H30.742L27.718 26H20.842ZM38.59 7.532L33.73 15.776H40.822L38.662 7.532H38.59ZM61.0506 26.396C59.1786 26.396 57.3426 26.156 55.5426 25.676C53.7426 25.172 52.1466 24.416 50.7546 23.408L52.9146 18.44C54.3786 19.352 55.8786 20 57.4146 20.384C58.9506 20.768 60.3786 20.96 61.6986 20.96C63.0666 20.96 64.1106 20.744 64.8306 20.312C65.5746 19.88 65.9466 19.316 65.9466 18.62C65.9466 18.068 65.7186 17.6 65.2626 17.216C64.8306 16.832 64.1346 16.544 63.1746 16.352L59.0346 15.344C57.2106 14.936 55.7586 14.156 54.6786 13.004C53.6226 11.852 53.0946 10.424 53.0946 8.72C53.0946 6.896 53.5866 5.36 54.5706 4.112C55.5786 2.84 56.8986 1.88 58.5306 1.232C60.1866 0.559999 61.9626 0.223999 63.8586 0.223999C65.4426 0.223999 67.0506 0.451999 68.6826 0.907999C70.3386 1.364 71.8386 2.084 73.1826 3.068L70.9146 7.784C69.8346 7.016 68.6466 6.476 67.3506 6.164C66.0786 5.828 64.9026 5.66 63.8226 5.66C62.5026 5.66 61.4586 5.888 60.6906 6.344C59.9466 6.776 59.5746 7.34 59.5746 8.036C59.5746 9.116 60.4146 9.86 62.0946 10.268L66.2346 11.24C68.2026 11.696 69.7266 12.512 70.8066 13.688C71.8866 14.84 72.4266 16.232 72.4266 17.864C72.4266 19.304 72.1146 20.564 71.4906 21.644C70.8666 22.7 70.0266 23.588 68.9706 24.308C67.9146 25.004 66.7026 25.532 65.3346 25.892C63.9666 26.228 62.5386 26.396 61.0506 26.396ZM74.4918 26L78.5238 0.619998H85.1478L83.5998 10.412H94.0398L95.6238 0.619998H102.212L98.1798 26H91.5918L93.1758 15.848H82.7358L81.1158 26H74.4918Z" fill="url(#paint0_linear_1_151)" style="mix-blend-mode:luminosity"/>
<defs>
<linearGradient id="paint0_linear_1_151" x1="-1.29102" y1="14.5" x2="102.709" y2="14.5" gradientUnits="userSpaceOnUse">
<stop stopColor="#363636"/>
<stop offset="1" stopColor="#485563"/>
</linearGradient>
</defs>
</svg>
