<svg width="119" height="57" viewBox="0 0 119 57" fill="none" xmlns="http://www.w3.org/2000/svg">
<g clipPath="url(#clip0_1_118)">
<path d="M56.2188 29.4658V43.3365H51.793V9.03271H63.3C66.103 9.03271 68.7585 10.0767 70.8239 12.0157C72.8892 13.8054 73.9219 16.4901 73.9219 19.3239C73.9219 22.1576 72.8892 24.6931 70.8239 26.6321C68.7585 28.571 66.2506 29.615 63.3 29.615L56.2188 29.4658ZM56.2188 13.2088V25.1406H63.5951C65.2179 25.1406 66.8407 24.544 67.8733 23.3508C70.2338 21.1136 70.2338 17.3849 68.0209 15.1477L67.8733 14.9986C66.6931 13.8054 65.2179 13.0597 63.5951 13.2088H56.2188Z" fill="#5F6368" style="mix-blend-mode:luminosity"/>
<path d="M84.1012 19.1733C87.3468 19.1733 89.8547 20.0682 91.7726 21.858C93.6904 23.6477 94.5756 26.0341 94.5756 29.017V43.3351H90.4448V40.0539H90.2973C88.527 42.7386 86.019 44.0809 83.0685 44.0809C80.5606 44.0809 78.3477 43.3351 76.5773 41.8437C74.9546 40.3522 73.9219 38.2641 73.9219 36.0269C73.9219 33.6406 74.807 31.7017 76.5773 30.2102C78.3477 28.7187 80.8556 28.1222 83.8061 28.1222C86.4616 28.1222 88.527 28.5696 90.1498 29.6136V28.5696C90.1498 27.0781 89.5597 25.5867 88.3795 24.6918C87.1992 23.6477 85.724 23.0512 84.1012 23.0512C81.5932 23.0512 79.6754 24.0952 78.3477 26.1832L74.512 23.7969C76.8724 20.6648 79.9705 19.1733 84.1012 19.1733ZM78.4952 36.1761C78.4952 37.3693 79.0853 38.4133 79.9705 39.0099C81.0031 39.7556 82.1834 40.2031 83.3636 40.2031C85.1339 40.2031 86.9042 39.4573 88.2319 38.115C89.7072 36.7727 90.4448 35.1321 90.4448 33.3423C89.1171 32.2983 87.1992 31.7017 84.6913 31.7017C82.921 31.7017 81.4457 32.1491 80.2655 33.044C79.0853 33.7897 78.4952 34.8338 78.4952 36.1761Z" fill="#5F6368" style="mix-blend-mode:luminosity"/>
<path d="M118.474 19.9233L103.869 53.7797H99.4432L104.902 41.9971L95.3125 20.0725H100.033L106.967 36.9261H107.115L113.901 20.0725H118.474V19.9233Z" fill="#5F6368" style="mix-blend-mode:luminosity"/>
<path d="M38.6616 26.4894C38.6616 25.147 38.5141 23.8047 38.3666 22.4624H19.9258V30.0689H30.4002C29.9576 32.4552 28.6298 34.6925 26.5645 36.0348V40.9566H32.9081C36.5963 37.5262 38.6616 32.4552 38.6616 26.4894Z" fill="#74A2EF" style="mix-blend-mode:luminosity"/>
<path d="M19.9276 45.7258C25.2386 45.7258 29.6644 43.936 32.91 40.9531L26.5663 36.0313C24.796 37.2244 22.5831 37.9702 19.9276 37.9702C14.9117 37.9702 10.486 34.5398 9.01069 29.7671H2.51953V34.8381C5.91264 41.5497 12.5513 45.7258 19.9276 45.7258Z" fill="#34A853" style="mix-blend-mode:luminosity"/>
<path d="M9.01138 29.7649C8.12622 27.3785 8.12622 24.6939 9.01138 22.1584V17.0874H2.52022C-0.282782 22.6058 -0.282782 29.1683 2.52022 34.8359L9.01138 29.7649Z" fill="#FBBC04" style="mix-blend-mode:luminosity"/>
<path d="M19.9286 14.1089C22.7316 14.1089 25.387 15.1529 27.4524 17.0918L33.0584 11.4242C29.5178 8.143 24.7969 6.20409 20.0761 6.35324C12.6998 6.35324 5.91355 10.5294 2.66797 17.241L9.15913 22.312C10.4869 17.5393 14.9127 14.1089 19.9286 14.1089Z" fill="#EA4335" style="mix-blend-mode:luminosity"/>
</g>
<defs>
<clipPath id="clip0_1_118">
<rect width="118.021" height="56.825" fill="white" transform="translate(0.453125 0.0874023)"/>
</clipPath>
</defs>
</svg>
