<svg width="160" height="43" viewBox="0 0 160 43" fill="none" xmlns="http://www.w3.org/2000/svg">
<g clipPath="url(#clip0_1_140)">
<path d="M59.6208 8.90918H50.8213C50.2191 8.90918 49.707 9.34828 49.6131 9.94494L46.0542 32.5936C45.9834 33.0404 46.3282 33.4434 46.7798 33.4434H50.9808C51.583 33.4434 52.0951 33.0043 52.189 32.4063L53.1489 26.2976C53.2415 25.6997 53.7549 25.2606 54.3558 25.2606H57.1414C62.9378 25.2606 66.2832 22.4451 67.1568 16.866C67.5506 14.4251 67.1736 12.5072 66.0349 11.1641C64.7842 9.68923 62.566 8.90918 59.6208 8.90918ZM60.636 17.1811C60.1548 20.3504 57.7423 20.3504 55.4095 20.3504H54.0817L55.0132 14.4315C55.0686 14.0738 55.3774 13.8103 55.7376 13.8103H56.3462C57.9353 13.8103 59.4342 13.8103 60.2088 14.7195C60.6707 15.262 60.8123 16.0678 60.636 17.1811Z" fill="#253B80" style="mix-blend-mode:luminosity"/>
<path d="M85.9246 17.0726H81.7108C81.3518 17.0726 81.0417 17.336 80.9864 17.6938L80.7998 18.8768L80.5052 18.448C79.5929 17.1191 77.5587 16.6748 75.5283 16.6748C70.8719 16.6748 66.8948 20.2147 66.1202 25.1805C65.7175 27.6575 66.29 30.0261 67.6899 31.6779C68.974 33.1967 70.8114 33.8295 72.9974 33.8295C76.7494 33.8295 78.8299 31.408 78.8299 31.408L78.6421 32.5832C78.5713 33.0326 78.9161 33.4356 79.3652 33.4356H83.1608C83.7643 33.4356 84.2738 32.9965 84.369 32.3985L86.6464 17.9224C86.7185 17.4768 86.375 17.0726 85.9246 17.0726ZM80.051 25.3045C79.6444 27.7208 77.7337 29.3429 75.2967 29.3429C74.0731 29.3429 73.0952 28.949 72.4673 28.2025C71.8446 27.4612 71.6078 26.4061 71.806 25.2308C72.1856 22.8351 74.1284 21.1601 76.5281 21.1601C77.7247 21.1601 78.6974 21.5592 79.3382 22.3121C79.9802 23.0728 80.235 24.1344 80.051 25.3045Z" fill="#253B80" style="mix-blend-mode:luminosity"/>
<path d="M108.365 17.0811H104.131C103.727 17.0811 103.347 17.2825 103.118 17.6196L97.278 26.2544L94.8024 17.9567C94.6468 17.4375 94.1694 17.0811 93.629 17.0811H89.4679C88.9622 17.0811 88.611 17.577 88.7718 18.0548L93.436 31.7936L89.051 38.0069C88.7062 38.4963 89.0536 39.1692 89.6493 39.1692H93.8786C94.2801 39.1692 94.6558 38.9729 94.8835 38.6423L108.967 18.2369C109.305 17.7487 108.958 17.0811 108.365 17.0811Z" fill="#253B80" style="mix-blend-mode:luminosity"/>
<path d="M122.386 8.90918H113.586C112.985 8.90918 112.473 9.34828 112.379 9.94494L108.82 32.5936C108.749 33.0404 109.094 33.4434 109.543 33.4434H114.059C114.479 33.4434 114.838 33.136 114.903 32.7176L115.913 26.2976C116.006 25.6997 116.519 25.2606 117.12 25.2606H119.904C125.702 25.2606 129.046 22.4451 129.921 16.866C130.316 14.4251 129.937 12.5072 128.798 11.1641C127.549 9.68923 125.332 8.90918 122.386 8.90918ZM123.402 17.1811C122.922 20.3504 120.509 20.3504 118.175 20.3504H116.849L117.781 14.4315C117.837 14.0738 118.143 13.8103 118.505 13.8103H119.113C120.701 13.8103 122.201 13.8103 122.976 14.7195C123.438 15.262 123.578 16.0678 123.402 17.1811Z" fill="#179BD7" style="mix-blend-mode:luminosity"/>
<path d="M148.689 17.0726H144.477C144.116 17.0726 143.808 17.336 143.754 17.6938L143.568 18.8768L143.272 18.448C142.36 17.1191 140.327 16.6748 138.296 16.6748C133.64 16.6748 129.664 20.2147 128.889 25.1805C128.488 27.6575 129.058 30.0261 130.458 31.6779C131.744 33.1967 133.579 33.8295 135.765 33.8295C139.517 33.8295 141.598 31.408 141.598 31.408L141.41 32.5832C141.339 33.0326 141.684 33.4356 142.136 33.4356H145.93C146.531 33.4356 147.043 32.9965 147.137 32.3985L149.416 17.9224C149.485 17.4768 149.14 17.0726 148.689 17.0726ZM142.815 25.3045C142.411 27.7208 140.498 29.3429 138.061 29.3429C136.84 29.3429 135.859 28.949 135.231 28.2025C134.609 27.4612 134.374 26.4061 134.57 25.2308C134.952 22.8351 136.892 21.1601 139.292 21.1601C140.489 21.1601 141.461 21.5592 142.102 22.3121C142.747 23.0728 143.002 24.1344 142.815 25.3045Z" fill="#179BD7" style="mix-blend-mode:luminosity"/>
<path d="M153.654 9.53167L150.042 32.5949C149.972 33.0417 150.317 33.4447 150.766 33.4447H154.397C155 33.4447 155.512 33.0056 155.605 32.4076L159.166 9.76026C159.237 9.31341 158.892 8.90918 158.443 8.90918H154.377C154.018 8.91047 153.709 9.17393 153.654 9.53167Z" fill="#179BD7" style="mix-blend-mode:luminosity"/>
<path d="M9.51308 37.84L10.186 33.5497L8.68704 33.5148H1.5293L6.50356 1.85686C6.519 1.76129 6.56918 1.67218 6.64252 1.60889C6.71586 1.54561 6.80979 1.51074 6.90758 1.51074H18.9765C22.9832 1.51074 25.7483 2.34762 27.1919 3.99942C27.8687 4.7743 28.2997 5.58406 28.5082 6.47518C28.7269 7.41021 28.7308 8.52734 28.5172 9.88984L28.5018 9.98929V10.8623L29.1785 11.2472C29.7485 11.5507 30.2014 11.8981 30.5488 12.2959C31.1278 12.9584 31.5023 13.8004 31.6605 14.7987C31.8239 15.8255 31.7699 17.0472 31.5023 18.4304C31.1935 20.0215 30.6942 21.4072 30.02 22.5412C29.3999 23.586 28.6098 24.4525 27.6719 25.1241C26.7763 25.7621 25.7123 26.2464 24.5092 26.5564C23.3435 26.8611 22.0144 27.0148 20.5566 27.0148H19.6173C18.9457 27.0148 18.2933 27.2576 17.7812 27.6929C17.2678 28.1371 16.9282 28.7441 16.8239 29.4079L16.7532 29.7941L15.5643 37.3557L15.5103 37.6334C15.4961 37.7212 15.4717 37.7651 15.4356 37.7948C15.4035 37.8219 15.3571 37.84 15.3121 37.84H9.51308Z" fill="#253B80" style="mix-blend-mode:luminosity"/>
<path d="M29.8159 10.0967C29.7798 10.3279 29.7387 10.5642 29.6924 10.807C28.1007 19.0092 22.6556 21.8427 15.7011 21.8427H12.1602C11.3097 21.8427 10.593 22.4626 10.4605 23.3046L8.64758 34.8453L8.1342 38.1166C8.04799 38.6693 8.47259 39.1678 9.02843 39.1678H15.3087C16.0524 39.1678 16.6841 38.6254 16.8012 37.8893L16.863 37.569L18.0454 30.0371L18.1213 29.6238C18.2371 28.8851 18.8702 28.3427 19.6139 28.3427H20.5531C26.6378 28.3427 31.401 25.863 32.7932 18.6876C33.3748 15.6901 33.0737 13.1872 31.5349 11.4269C31.0691 10.8961 30.4914 10.4557 29.8159 10.0967Z" fill="#179BD7" style="mix-blend-mode:luminosity"/>
<path d="M28.1533 9.42791C27.9101 9.35688 27.6592 9.2923 27.4019 9.23419C27.1433 9.17736 26.8782 9.12699 26.6054 9.08308C25.6507 8.92811 24.6047 8.85449 23.484 8.85449H14.0244C13.7915 8.85449 13.5702 8.90744 13.3721 9.00301C12.9359 9.21352 12.6116 9.62809 12.5331 10.1356L10.5208 22.929L10.4629 23.3022C10.5954 22.4602 11.3121 21.8403 12.1626 21.8403H15.7035C22.6579 21.8403 28.1031 19.0055 29.6947 10.8046C29.7423 10.5618 29.7822 10.3255 29.8183 10.0943C29.4155 9.87992 28.9794 9.69654 28.5097 9.54027C28.3939 9.50152 28.2743 9.46407 28.1533 9.42791Z" fill="#222D65" style="mix-blend-mode:luminosity"/>
<path d="M12.5321 10.1335C12.6106 9.62596 12.9349 9.21139 13.371 9.00218C13.5705 8.90661 13.7905 8.85366 14.0234 8.85366H23.483C24.6037 8.85366 25.6497 8.92727 26.6045 9.08225C26.8772 9.12616 27.1423 9.17652 27.4009 9.23335C27.6582 9.29147 27.9091 9.35604 28.1523 9.42707C28.2733 9.46323 28.3929 9.50069 28.51 9.53814C28.9796 9.69441 29.4158 9.87909 29.8186 10.0922C30.292 7.06109 29.8147 4.99731 28.1819 3.12854C26.3819 1.07122 23.133 0.19043 18.9758 0.19043H6.90682C6.05762 0.19043 5.33322 0.810339 5.20198 1.65367L0.174962 33.6371C0.0758881 34.2699 0.562249 34.8408 1.19786 34.8408H8.64897L10.5198 22.9269L12.5321 10.1335Z" fill="#253B80" style="mix-blend-mode:luminosity"/>
</g>
<defs>
<clipPath id="clip0_1_140">
<rect width="159.547" height="42.6187" fill="white" transform="translate(0.162109 0.19043)"/>
</clipPath>
</defs>
</svg>
