<svg width="168" height="31" viewBox="0 0 168 31" fill="none" xmlns="http://www.w3.org/2000/svg">
<path fillRule="evenodd" clipRule="evenodd" d="M34.4525 19.7233C33.2081 24.9231 30.2745 27.5231 27.2088 28.823C24.1501 30.123 20.9662 30.123 19.2213 30.123H0.708984L3.441 22.6152H20.7437C22.1271 22.6013 23.0378 22.5178 23.6635 22.2676C23.9453 22.1591 24.1975 21.9854 24.3993 21.7606C24.6011 21.5359 24.7468 21.2665 24.8244 20.9746C24.9035 20.7491 24.9412 20.5113 24.9356 20.2724C24.9343 20.0601 24.8844 19.8508 24.7896 19.6607C24.645 19.3968 24.4279 19.1797 24.164 19.035C23.917 18.8917 23.6531 18.7796 23.3784 18.7014L21.6753 18.2008L20.563 17.8811C19.6667 17.6094 18.8245 17.1836 18.0743 16.6228C17.3969 16.1302 16.8367 15.494 16.4337 14.7598C16.1358 14.1535 15.9994 13.4807 16.0375 12.8063C16.0951 11.9095 16.2776 11.025 16.5797 10.1786C18.1508 5.49316 20.1876 3.15044 22.4886 1.97561C24.7966 0.807728 27.3756 0.807728 30.0242 0.807728H30.0242H46.8334C44.0893 2.51974 41.7238 4.77412 39.8817 7.43269L39.6593 7.76636H28.8981C28.2474 7.74627 27.6021 7.88968 27.0211 8.18347C26.7921 8.30181 26.5892 8.46493 26.4244 8.66315C26.2596 8.86138 26.1363 9.09067 26.0618 9.33744C25.9963 9.55746 25.978 9.7888 26.0079 10.0164C26.0379 10.244 26.1154 10.4627 26.2356 10.6583C26.5029 11.069 26.9147 11.3643 27.3896 11.4855L28.8494 11.9026L29.8226 12.1807C31.8525 12.7646 33.2429 13.6753 34.0076 14.9196C34.7722 16.171 34.9182 17.7698 34.4525 19.7163V19.7233ZM45.5682 30.6096H45.5474C41.1261 30.6096 38.9572 28.823 37.9075 27.3284C36.0653 24.6868 36.0444 20.6756 37.8449 15.733C38.7359 13.2569 39.9515 10.9099 41.4598 8.7535C43.6496 5.6461 46.3468 3.29643 49.3152 1.89219C51.3668 0.911669 53.6106 0.398808 55.8845 0.390625C59.3743 0.390625 61.8838 1.46118 63.3437 3.55364C65.7768 7.02948 64.442 12.1668 63.441 14.9196C59.6315 25.3333 53.6113 30.6096 45.5682 30.6096ZM81.1956 18.6388L73.3193 18.6319L69.1344 30.123H60.2224L68.3558 7.76636C70.0451 3.23386 73.6113 0.814676 78.401 0.814676H95.53C92.9231 2.39966 90.1355 4.64506 88.1751 7.43269L87.9526 7.76636H78.6652C78.2818 7.74911 77.9023 7.84982 77.5778 8.05491C77.2534 8.26 76.9997 8.55962 76.8508 8.91339L75.5856 12.4727L83.441 12.4796L81.1956 18.6388ZM94.1605 30.6096H94.1466C89.7253 30.6096 87.5425 28.823 86.4997 27.3284C84.6575 24.6868 84.6367 20.6756 86.4441 15.733C87.3299 13.2559 88.5433 10.9086 90.0521 8.7535C92.2488 5.6461 94.9391 3.29643 97.9075 1.89219C99.986 0.918956 102.197 0.390625 104.477 0.390625C107.967 0.390625 110.476 1.46118 111.943 3.55364C114.362 7.02948 113.041 12.1668 112.033 14.9196C108.231 25.3333 102.218 30.6096 94.1605 30.6096ZM129.892 17.6239C130.289 18.2367 130.597 18.9534 130.884 19.6214C130.929 19.7263 130.974 19.8299 131.018 19.9318C132.297 22.8724 134.028 30.1369 134.028 30.1369H124.498C124.498 30.1369 122.204 20.2446 122.016 19.8206L118.137 30.1369H109.072L119.743 0.828578H129.614C133.875 0.828578 136.601 1.77401 137.935 3.69963C139.041 5.28461 139.096 7.45354 138.102 10.123C136.489 14.4747 132.582 16.6228 129.899 17.6308L129.892 17.6239ZM165.012 7.78722H154.571L146.43 30.1438H138.297L146.437 7.78722H141.036C141.321 5.89791 140.887 3.97025 139.819 2.38576C139.409 1.79352 138.909 1.26826 138.338 0.828578H167.549L165.012 7.78026V7.78722ZM125.721 6.8852H127.216C129.955 6.8852 130.97 7.68464 130.045 10.1873C129.176 12.53 127.612 13.9759 124.637 13.9759H123.087L125.721 6.8852ZM95.1269 15.408C96.9899 10.2985 99.4161 7.03119 102.343 7.03119H102.35C105.13 7.03814 105.763 8.65093 103.323 15.3385C100.806 22.2137 98.9851 23.9446 96.2392 23.9446C93.5628 23.9446 92.6243 22.2554 95.1269 15.408ZM46.5345 15.399C48.3975 10.2895 50.8237 7.02224 53.7503 7.02224C56.531 7.0292 57.1706 8.64198 54.7236 15.3295C52.214 22.2047 50.3927 23.9357 47.6468 23.9357C44.9704 23.9357 44.0319 22.2464 46.5345 15.399Z" fill="#494949"/>
</svg>
