<svg width="119" height="49" viewBox="0 0 119 49" fill="none" xmlns="http://www.w3.org/2000/svg">
<g clipPath="url(#clip0_1_133)">
<path d="M22.1616 6.60364C20.785 8.23269 18.5823 9.51757 16.3796 9.33401C16.1043 7.13136 17.1827 4.79104 18.4446 3.34555C19.8213 1.67062 22.2304 0.477519 24.1807 0.385742C24.4101 2.68017 23.5153 4.92871 22.1616 6.60364ZM24.1578 9.76995C20.9685 9.5864 18.2381 11.5826 16.7238 11.5826C15.1865 11.5826 12.8692 9.86173 10.3453 9.90762C7.06427 9.95351 4.01268 11.812 2.33775 14.7718C-1.10389 20.6914 1.44292 29.4561 4.76984 34.2744C6.39889 36.6606 8.34915 39.2763 10.9189 39.1845C13.351 39.0927 14.3147 37.6014 17.2515 37.6014C20.2113 37.6014 21.0603 39.1845 23.63 39.1386C26.2916 39.0927 27.9665 36.7524 29.5956 34.3662C31.454 31.6588 32.2112 29.0202 32.2571 28.8825C32.2112 28.8366 27.1176 26.8864 27.0717 21.0127C27.0258 16.1026 31.0869 13.7623 31.2705 13.6246C28.9761 10.2288 25.3968 9.86173 24.1578 9.76995ZM42.582 3.11611V38.8862H48.1345V26.6569H55.8209C62.8418 26.6569 67.7748 21.8386 67.7748 14.8636C67.7748 7.88852 62.9336 3.11611 56.0044 3.11611H42.582ZM48.1345 7.79674H54.536C59.3543 7.79674 62.1076 10.3665 62.1076 14.8865C62.1076 19.4066 59.3543 21.9993 54.513 21.9993H48.1345V7.79674ZM77.9162 39.1616C81.4037 39.1616 84.6389 37.3949 86.1073 34.5957H86.222V38.8862H91.3616V21.0815C91.3616 15.919 87.2316 12.5921 80.876 12.5921C74.9793 12.5921 70.6199 15.9649 70.4593 20.5997H75.4612C75.8742 18.397 77.9162 16.9515 80.7154 16.9515C84.1112 16.9515 86.0155 18.5347 86.0155 21.4486V23.4218L79.0864 23.8348C72.639 24.2248 69.1515 26.8634 69.1515 31.4523C69.1515 36.087 72.7537 39.1616 77.9162 39.1616ZM79.4076 34.9169C76.4478 34.9169 74.5663 33.4943 74.5663 31.3146C74.5663 29.0661 76.3789 27.7583 79.8435 27.5518L86.0155 27.1617V29.1808C86.0155 32.5307 83.1704 34.9169 79.4076 34.9169ZM98.2219 48.6146C103.637 48.6146 106.184 46.5496 108.409 40.2858L118.16 12.9363H112.516L105.977 34.0679H105.862L99.3232 12.9363H93.5183L102.925 38.978L102.421 40.5612C101.572 43.2457 100.195 44.2782 97.7401 44.2782C97.3041 44.2782 96.4552 44.2323 96.111 44.1864V48.477C96.4322 48.5687 97.8089 48.6146 98.2219 48.6146Z" fill="#363636" style="mix-blend-mode:luminosity"/>
</g>
<defs>
<clipPath id="clip0_1_133">
<rect width="117.475" height="48.2289" fill="white" transform="translate(0.6875 0.385742)"/>
</clipPath>
</defs>
</svg>
