<svg width="77" height="48" viewBox="0 0 98 68" fill="none" xmlns="http://www.w3.org/2000/svg">
<g clipPath="url(#clip0_1_135)">
<path d="M58.8732 6.08594H33.998V50.7766H58.8732V6.08594Z" fill="#FF5A00" style="mix-blend-mode:luminosity"/>
<path d="M35.6554 28.4261C35.6554 19.3463 39.9239 11.2877 46.4739 6.0808C41.6534 2.29065 35.5726 0 28.9398 0C13.2272 0 0.513672 12.7136 0.513672 28.4261C0.513672 44.1387 13.2272 56.8523 28.9398 56.8523C35.5726 56.8523 41.6534 54.5616 46.4739 50.7715C39.9147 45.6382 35.6554 37.5059 35.6554 28.4261Z" fill="#EB001B" style="mix-blend-mode:darken"/>
<path d="M92.4348 28.4261C92.4348 44.1387 79.7212 56.8523 64.0087 56.8523C57.3759 56.8523 51.2951 54.5616 46.4746 50.7715C53.1074 45.5554 57.2931 37.5059 57.2931 28.4261C57.2931 19.3463 53.0246 11.2877 46.4746 6.0808C51.2859 2.29065 57.3667 0 63.9995 0C79.7212 0 92.4348 12.7964 92.4348 28.4261Z" fill="#F79E1B" style="mix-blend-mode:luminosity"/>
</g>
<defs>
<clipPath id="clip0_1_135">
<rect width="92" height="57" fill="white" transform="translate(0.162109)"/>
</clipPath>
</defs>
</svg>
