<svg width="121" height="39" viewBox="0 0 121 39" fill="none" xmlns="http://www.w3.org/2000/svg">
<g clipPath="url(#clip0_1_126)">
<path d="M52.5677 38.3886H42.8296L48.9205 0.727051H58.6581L52.5677 38.3886Z" fill="#00579F" style="mix-blend-mode:luminosity"/>
<path d="M87.8694 1.65077C85.9486 0.888738 82.9021 0.0473633 79.1351 0.0473633C69.5184 0.0473633 62.7464 5.17548 62.7048 12.5072C62.625 17.9164 67.5534 20.9209 71.2394 22.7245C75.007 24.5676 76.2877 25.7705 76.2877 27.4133C76.2494 29.9364 73.2433 31.0994 70.4396 31.0994C66.5517 31.0994 64.4685 30.4998 61.3027 29.0961L60.0204 28.4943L58.6577 36.9485C60.9417 37.9891 65.1496 38.9124 69.5184 38.9529C79.7363 38.9529 86.3884 33.9041 86.4673 26.0911C86.5061 21.8038 83.9037 18.5187 78.2931 15.8343C74.8872 14.1111 72.8013 12.9491 72.8013 11.186C72.8413 9.58311 74.5655 7.94137 78.4103 7.94137C81.5761 7.86096 83.9021 8.62192 85.6642 9.38342L86.545 9.78334L87.8694 1.65077Z" fill="#00579F" style="mix-blend-mode:luminosity"/>
<path d="M100.81 25.0465C101.612 22.8829 104.698 14.5091 104.698 14.5091C104.658 14.5895 105.498 12.3055 105.979 10.9034L106.66 14.1486C106.66 14.1486 108.504 23.1635 108.904 25.0465C107.382 25.0465 102.734 25.0465 100.81 25.0465ZM112.831 0.727051H105.298C102.975 0.727051 101.211 1.40761 100.208 3.85185L85.7437 38.3881H95.9615C95.9615 38.3881 97.6438 33.7398 98.0053 32.7387C99.1263 32.7387 109.066 32.7387 110.508 32.7387C110.788 34.0609 111.67 38.3881 111.67 38.3881H120.687L112.831 0.727051Z" fill="#00579F" style="mix-blend-mode:luminosity"/>
<path d="M34.6963 0.727051L25.1595 26.4087L24.1174 21.2001C22.3542 15.1902 16.8246 8.66046 10.6538 5.41372L19.3892 38.3487H29.687L44.9936 0.727051H34.6963Z" fill="#00579F" style="mix-blend-mode:luminosity"/>
<path d="M16.3021 0.727051H0.634407L0.474121 1.48801C12.6959 4.61334 20.7901 12.1468 24.1157 21.2017L20.7097 3.89285C20.149 1.48748 18.4257 0.806396 16.3021 0.727051Z" fill="#FAA61A" style="mix-blend-mode:luminosity"/>
</g>
<defs>
<clipPath id="clip0_1_126">
<rect width="120.213" height="38.9055" fill="white" transform="translate(0.474121 0.0473633)"/>
</clipPath>
</defs>
</svg>
